<svg xmlns="http://www.w3.org/2000/svg" xmlns:xlink="http://www.w3.org/1999/xlink" width="118" zoomAndPan="magnify" viewBox="0 0 88.5 30.000001" height="40" preserveAspectRatio="xMidYMid meet" version="1.2"><defs><clipPath id="6814f47795"><path d="M 31 4 L 35.5 4 L 35.5 10 L 31 10 Z M 31 4 "/></clipPath><clipPath id="0822d5fd31"><path d="M 10.789062 6 L 24.65625 6 L 24.65625 27.855469 L 10.789062 27.855469 Z M 10.789062 6 "/></clipPath><clipPath id="a1ea919f7a"><path d="M 6.457031 0 L 26 0 L 26 14 L 6.457031 14 Z M 6.457031 0 "/></clipPath></defs><g id="80401921c9"><g clip-rule="nonzero" clip-path="url(#6814f47795)"><path style=" stroke:none;fill-rule:nonzero;fill:#e58013;fill-opacity:1;" d="M 33.300781 4.925781 L 33.976562 6.515625 L 35.488281 6.515625 L 34.394531 7.582031 L 34.652344 9.089844 L 33.300781 8.375 L 31.945312 9.089844 L 32.207031 7.582031 L 31.113281 6.515625 L 32.625 6.515625 L 33.300781 4.925781 "/></g><path style=" stroke:none;fill-rule:nonzero;fill:#264790;fill-opacity:1;" d="M 28.410156 0.621094 L 28.867188 1.691406 L 29.886719 1.691406 L 29.148438 2.410156 L 29.324219 3.425781 L 28.410156 2.945312 L 27.5 3.425781 L 27.675781 2.410156 L 26.9375 1.691406 L 27.957031 1.691406 L 28.410156 0.621094 "/><path style=" stroke:none;fill-rule:nonzero;fill:#e58013;fill-opacity:1;" d="M 25.328125 8.664062 L 25.628906 9.367188 L 26.296875 9.367188 L 25.8125 9.835938 L 25.929688 10.503906 L 25.328125 10.191406 L 24.734375 10.503906 L 24.847656 9.835938 L 24.363281 9.367188 L 25.03125 9.367188 L 25.328125 8.664062 "/><g clip-rule="nonzero" clip-path="url(#0822d5fd31)"><path style=" stroke:none;fill-rule:evenodd;fill:#e58013;fill-opacity:1;" d="M 12.558594 15.410156 C 11.589844 21.089844 15.195312 26.496094 20.699219 27.855469 C 20.433594 27.832031 20.164062 27.796875 19.890625 27.75 C 13.941406 26.734375 9.9375 21.085938 10.949219 15.136719 C 11.964844 9.183594 17.613281 5.179688 23.5625 6.191406 C 23.832031 6.238281 24.101562 6.296875 24.363281 6.359375 C 18.71875 5.820312 13.527344 9.726562 12.558594 15.410156 "/></g><path style=" stroke:none;fill-rule:evenodd;fill:#264790;fill-opacity:1;" d="M 29.085938 23.839844 C 20.085938 28.964844 11.203125 16.433594 19.015625 9.636719 C 18.765625 9.78125 18.519531 9.9375 18.277344 10.109375 C 14.339844 12.902344 13.40625 18.363281 16.199219 22.304688 C 18.996094 26.242188 24.453125 27.171875 28.394531 24.378906 C 28.636719 24.210938 28.867188 24.027344 29.085938 23.839844 "/><g clip-rule="nonzero" clip-path="url(#a1ea919f7a)"><path style=" stroke:none;fill-rule:evenodd;fill:#264790;fill-opacity:1;" d="M 22.457031 3.210938 L 23 4.523438 C 22.570312 4.476562 22.144531 4.457031 21.714844 4.457031 C 18.796875 4.457031 15.949219 5.492188 13.699219 7.375 C 12.949219 8 12.285156 8.707031 11.707031 9.476562 L 11.140625 8.097656 L 11.066406 7.929688 L 10.515625 7.890625 L 8.71875 7.761719 L 7.4375 7.667969 L 7.386719 7.664062 L 7.386719 11.476562 C 7.519531 11.554688 7.609375 11.699219 7.609375 11.859375 C 7.609375 12 7.542969 12.125 7.441406 12.203125 C 7.425781 12.21875 7.40625 12.234375 7.386719 12.242188 L 7.386719 12.660156 L 7.851562 13.589844 L 6.457031 13.589844 L 6.914062 12.675781 L 6.914062 12.269531 C 6.78125 12.191406 6.691406 12.050781 6.691406 11.886719 C 6.691406 11.730469 6.769531 11.597656 6.890625 11.515625 C 6.898438 11.511719 6.90625 11.503906 6.914062 11.496094 C 6.925781 11.492188 6.933594 11.484375 6.945312 11.476562 L 6.945312 7.636719 L 14.601562 0.351562 L 23.214844 0.136719 L 25.164062 0.0898438 L 22.457031 3.210938 "/></g><g style="fill:#264790;fill-opacity:1;"><g transform="translate(19.060049, 19.719765)"><path style="stroke:none" d="M 10.109375 0 L 8.453125 0 L 7.703125 -4.921875 L 5.453125 -0.015625 L 5.0625 -0.015625 L 2.796875 -4.921875 L 2.0625 0 L 0.390625 0 L 1.578125 -7.546875 L 3.21875 -7.546875 L 5.25 -2.921875 L 7.296875 -7.546875 L 8.9375 -7.546875 Z M 10.109375 0 "/></g></g><g style="fill:#264790;fill-opacity:1;"><g transform="translate(29.56786, 19.719765)"><path style="stroke:none" d="M 5.515625 -5.828125 L 6.6875 -5.828125 L 6.6875 -0.015625 L 5.4375 -0.015625 L 5.3125 -0.53125 C 5.0625 -0.3125 4.773438 -0.140625 4.453125 -0.015625 C 4.140625 0.0976562 3.796875 0.15625 3.421875 0.15625 C 2.847656 0.15625 2.328125 0.0234375 1.859375 -0.234375 C 1.398438 -0.503906 1.035156 -0.867188 0.765625 -1.328125 C 0.503906 -1.796875 0.375 -2.328125 0.375 -2.921875 C 0.375 -3.503906 0.503906 -4.023438 0.765625 -4.484375 C 1.035156 -4.953125 1.398438 -5.316406 1.859375 -5.578125 C 2.328125 -5.847656 2.847656 -5.984375 3.421875 -5.984375 C 3.796875 -5.984375 4.144531 -5.921875 4.46875 -5.796875 C 4.789062 -5.671875 5.082031 -5.492188 5.34375 -5.265625 Z M 3.5625 -1.328125 C 3.863281 -1.328125 4.132812 -1.394531 4.375 -1.53125 C 4.613281 -1.664062 4.800781 -1.851562 4.9375 -2.09375 C 5.070312 -2.332031 5.140625 -2.609375 5.140625 -2.921875 C 5.140625 -3.222656 5.070312 -3.492188 4.9375 -3.734375 C 4.800781 -3.972656 4.613281 -4.160156 4.375 -4.296875 C 4.132812 -4.441406 3.863281 -4.515625 3.5625 -4.515625 C 3.25 -4.515625 2.972656 -4.441406 2.734375 -4.296875 C 2.492188 -4.160156 2.304688 -3.972656 2.171875 -3.734375 C 2.035156 -3.492188 1.96875 -3.222656 1.96875 -2.921875 C 1.96875 -2.609375 2.035156 -2.332031 2.171875 -2.09375 C 2.304688 -1.863281 2.492188 -1.675781 2.734375 -1.53125 C 2.972656 -1.394531 3.25 -1.328125 3.5625 -1.328125 Z M 3.5625 -1.328125 "/></g></g><g style="fill:#264790;fill-opacity:1;"><g transform="translate(37.004159, 19.719765)"><path style="stroke:none" d="M 5.375 -6.03125 L 2.5 -6.03125 L 2.5 -4.359375 L 5.09375 -4.359375 L 5.09375 -2.890625 L 2.5 -2.890625 L 2.5 0 L 0.859375 0 L 0.859375 -7.546875 L 5.375 -7.546875 Z M 5.375 -6.03125 "/></g></g><g style="fill:#264790;fill-opacity:1;"><g transform="translate(42.769985, 19.719765)"><path style="stroke:none" d="M 0.75 -6.59375 L 0.75 -8.0625 L 2.328125 -8.0625 L 2.328125 -6.59375 Z M 0.75 0 L 0.75 -5.828125 L 2.328125 -5.828125 L 2.328125 0 Z M 0.75 0 "/></g></g><g style="fill:#264790;fill-opacity:1;"><g transform="translate(45.852276, 19.719765)"><path style="stroke:none" d="M 3.453125 0.15625 C 2.878906 0.15625 2.359375 0.0195312 1.890625 -0.25 C 1.421875 -0.519531 1.050781 -0.890625 0.78125 -1.359375 C 0.507812 -1.828125 0.375 -2.351562 0.375 -2.9375 C 0.375 -3.519531 0.507812 -4.039062 0.78125 -4.5 C 1.050781 -4.957031 1.421875 -5.316406 1.890625 -5.578125 C 2.359375 -5.847656 2.882812 -5.984375 3.46875 -5.984375 C 3.96875 -5.984375 4.425781 -5.882812 4.84375 -5.6875 C 5.257812 -5.488281 5.601562 -5.207031 5.875 -4.84375 C 6.15625 -4.488281 6.34375 -4.070312 6.4375 -3.59375 L 4.875 -3.59375 C 4.738281 -3.882812 4.546875 -4.109375 4.296875 -4.265625 C 4.054688 -4.421875 3.773438 -4.5 3.453125 -4.5 C 3.179688 -4.5 2.929688 -4.429688 2.703125 -4.296875 C 2.472656 -4.160156 2.289062 -3.972656 2.15625 -3.734375 C 2.03125 -3.492188 1.96875 -3.222656 1.96875 -2.921875 C 1.96875 -2.617188 2.03125 -2.347656 2.15625 -2.109375 C 2.289062 -1.867188 2.472656 -1.675781 2.703125 -1.53125 C 2.929688 -1.382812 3.179688 -1.3125 3.453125 -1.3125 C 3.785156 -1.3125 4.070312 -1.394531 4.3125 -1.5625 C 4.550781 -1.738281 4.738281 -1.984375 4.875 -2.296875 L 6.453125 -2.296875 C 6.359375 -1.804688 6.171875 -1.375 5.890625 -1 C 5.617188 -0.632812 5.269531 -0.347656 4.84375 -0.140625 C 4.425781 0.0546875 3.960938 0.15625 3.453125 0.15625 Z M 3.453125 0.15625 "/></g></g><g style="fill:#264790;fill-opacity:1;"><g transform="translate(52.588053, 19.719765)"><path style="stroke:none" d="M 4.09375 -5.96875 C 4.75 -5.96875 5.265625 -5.742188 5.640625 -5.296875 C 6.023438 -4.859375 6.21875 -4.269531 6.21875 -3.53125 L 6.21875 0 L 4.640625 0 L 4.640625 -3.28125 C 4.640625 -3.707031 4.5625 -4.03125 4.40625 -4.25 C 4.25 -4.46875 3.992188 -4.578125 3.640625 -4.578125 C 3.242188 -4.578125 2.925781 -4.441406 2.6875 -4.171875 C 2.445312 -3.910156 2.328125 -3.539062 2.328125 -3.0625 L 2.328125 0 L 0.75 0 L 0.75 -7.921875 L 2.328125 -7.921875 L 2.328125 -5.28125 C 2.546875 -5.488281 2.804688 -5.65625 3.109375 -5.78125 C 3.410156 -5.90625 3.738281 -5.96875 4.09375 -5.96875 Z M 4.09375 -5.96875 "/></g></g><g style="fill:#264790;fill-opacity:1;"><g transform="translate(59.496267, 19.719765)"><path style="stroke:none" d="M 6.40625 -2.9375 C 6.40625 -2.78125 6.394531 -2.625 6.375 -2.46875 L 1.96875 -2.46875 C 2.03125 -2.070312 2.1875 -1.765625 2.4375 -1.546875 C 2.695312 -1.335938 3.015625 -1.234375 3.390625 -1.234375 C 3.671875 -1.234375 3.914062 -1.289062 4.125 -1.40625 C 4.34375 -1.53125 4.507812 -1.695312 4.625 -1.90625 L 6.28125 -1.90625 C 6.070312 -1.269531 5.707031 -0.765625 5.1875 -0.390625 C 4.664062 -0.0234375 4.066406 0.15625 3.390625 0.15625 C 2.816406 0.15625 2.300781 0.0234375 1.84375 -0.234375 C 1.394531 -0.503906 1.035156 -0.867188 0.765625 -1.328125 C 0.503906 -1.796875 0.375 -2.320312 0.375 -2.90625 C 0.375 -3.488281 0.503906 -4.007812 0.765625 -4.46875 C 1.035156 -4.9375 1.394531 -5.304688 1.84375 -5.578125 C 2.300781 -5.847656 2.816406 -5.984375 3.390625 -5.984375 C 3.992188 -5.984375 4.519531 -5.84375 4.96875 -5.5625 C 5.425781 -5.289062 5.78125 -4.925781 6.03125 -4.46875 C 6.28125 -4.007812 6.40625 -3.5 6.40625 -2.9375 Z M 3.390625 -4.640625 C 3.046875 -4.640625 2.75 -4.539062 2.5 -4.34375 C 2.257812 -4.15625 2.097656 -3.890625 2.015625 -3.546875 L 4.828125 -3.546875 C 4.597656 -4.273438 4.117188 -4.640625 3.390625 -4.640625 Z M 3.390625 -4.640625 "/></g></g></g></svg>